<svg width="16" height="17" viewBox="0 0 16 17" fill="none" xmlns="http://www.w3.org/2000/svg">
<path d="M9.90457 12.2296C11.1676 12.0798 12.3855 11.7828 13.5408 11.3564C12.5829 10.2931 11.9999 8.88555 11.9999 7.3418V6.87459C12 6.86367 12 6.85274 12 6.8418C12 4.63266 10.2091 2.8418 8 2.8418C5.79086 2.8418 4 4.63266 4 6.8418L3.99987 7.3418C3.99987 8.88555 3.41685 10.2931 2.45898 11.3564C3.61427 11.7829 4.83229 12.0798 6.09542 12.2296M9.90457 12.2296C9.27999 12.3037 8.64438 12.3418 7.99987 12.3418C7.35545 12.3418 6.71992 12.3037 6.09542 12.2296M9.90457 12.2296C9.96654 12.4225 10 12.6283 10 12.8418C10 13.9464 9.10457 14.8418 8 14.8418C6.89543 14.8418 6 13.9464 6 12.8418C6 12.6283 6.03346 12.4226 6.09542 12.2296" stroke="#B6B9D3" stroke-linecap="round" stroke-linejoin="round"/>
</svg>
