<svg width="20" height="21" viewBox="0 0 20 21" fill="none" xmlns="http://www.w3.org/2000/svg">
<path d="M8.17766 14.095L7.5 16.4668L6.82234 14.095C6.4664 12.8492 5.4926 11.8754 4.24682 11.5195L1.875 10.8418L4.24683 10.1641C5.4926 9.8082 6.4664 8.8344 6.82234 7.58862L7.5 5.2168L8.17766 7.58862C8.5336 8.8344 9.5074 9.8082 10.7532 10.1641L13.125 10.8418L10.7532 11.5195C9.5074 11.8754 8.5336 12.8492 8.17766 14.095Z" stroke="white" stroke-linecap="round" stroke-linejoin="round"/>
<path d="M15.2157 8.10391L15 8.9668L14.7843 8.10391C14.5324 7.09624 13.7456 6.30944 12.7379 6.05752L11.875 5.8418L12.7379 5.62608C13.7456 5.37416 14.5324 4.58736 14.7843 3.57968L15 2.7168L15.2157 3.57968C15.4676 4.58736 16.2544 5.37416 17.2621 5.62608L18.125 5.8418L17.2621 6.05752C16.2544 6.30944 15.4676 7.09623 15.2157 8.10391Z" stroke="white" stroke-linecap="round" stroke-linejoin="round"/>
<path d="M14.0785 17.9812L13.75 18.9668L13.4215 17.9812C13.2348 17.4213 12.7955 16.982 12.2356 16.7953L11.25 16.4668L12.2356 16.1383C12.7955 15.9516 13.2348 15.5123 13.4215 14.9524L13.75 13.9668L14.0785 14.9524C14.2652 15.5123 14.7045 15.9516 15.2644 16.1383L16.25 16.4668L15.2644 16.7953C14.7045 16.982 14.2652 17.4213 14.0785 17.9812Z" stroke="white" stroke-linecap="round" stroke-linejoin="round"/>
</svg>
