<svg width="16" height="17" viewBox="0 0 16 17" fill="none" xmlns="http://www.w3.org/2000/svg">
<path d="M2 9.5918C2 9.17758 2.33579 8.8418 2.75 8.8418H4.25C4.66421 8.8418 5 9.17758 5 9.5918V14.0918C5 14.506 4.66421 14.8418 4.25 14.8418H2.75C2.33579 14.8418 2 14.506 2 14.0918V9.5918Z" stroke="#B6B9D3" stroke-linecap="round" stroke-linejoin="round"/>
<path d="M6.5 6.5918C6.5 6.17758 6.83579 5.8418 7.25 5.8418H8.75C9.16421 5.8418 9.5 6.17758 9.5 6.5918V14.0918C9.5 14.506 9.16421 14.8418 8.75 14.8418H7.25C6.83579 14.8418 6.5 14.506 6.5 14.0918V6.5918Z" stroke="#B6B9D3" stroke-linecap="round" stroke-linejoin="round"/>
<path d="M11 3.5918C11 3.17758 11.3358 2.8418 11.75 2.8418H13.25C13.6642 2.8418 14 3.17758 14 3.5918V14.0918C14 14.506 13.6642 14.8418 13.25 14.8418H11.75C11.3358 14.8418 11 14.506 11 14.0918V3.5918Z" stroke="#B6B9D3" stroke-linecap="round" stroke-linejoin="round"/>
</svg>
