<svg width="16" height="17" viewBox="0 0 16 17" fill="none" xmlns="http://www.w3.org/2000/svg">
<path d="M13 10.3418V8.5918C13 7.34916 11.9926 6.3418 10.75 6.3418H9.75C9.33579 6.3418 9 6.00601 9 5.5918V4.5918C9 3.34916 7.99264 2.3418 6.75 2.3418H5.5M8 8.3418V13.3418M9.5 9.03082C9.02057 8.90743 8.51795 8.8418 8 8.8418C7.72623 8.8418 7.45674 8.86013 7.19269 8.89564C6.83546 8.94369 6.54359 9.21476 6.51181 9.57381C6.50399 9.66209 6.5 9.75148 6.5 9.8418C6.5 10.1513 6.72386 10.4043 7.01663 10.5047L8.98337 11.1789C9.27614 11.2793 9.5 11.5323 9.5 11.8418C9.5 11.9321 9.49601 12.0215 9.48819 12.1098C9.45641 12.4688 9.16454 12.7399 8.80731 12.788C8.54326 12.8235 8.27377 12.8418 8 12.8418C7.48205 12.8418 6.97943 12.7762 6.5 12.6528M7 2.3418H3.75C3.33579 2.3418 3 2.67758 3 3.0918V14.5918C3 15.006 3.33579 15.3418 3.75 15.3418H12.25C12.6642 15.3418 13 15.006 13 14.5918V8.3418C13 5.02809 10.3137 2.3418 7 2.3418Z" stroke="#B6B9D3" stroke-linecap="round" stroke-linejoin="round"/>
</svg>
