<svg width="24" height="24" viewBox="0 0 24 24" fill="none" xmlns="http://www.w3.org/2000/svg">
<path fill-rule="evenodd" clip-rule="evenodd" d="M9 4.5C9.33486 4.5 9.62915 4.72198 9.72114 5.04396L10.5343 7.89015C10.8903 9.13593 11.8641 10.1097 13.1099 10.4657L15.956 11.2789C16.278 11.3709 16.5 11.6651 16.5 12C16.5 12.3349 16.278 12.6291 15.956 12.7211L13.1098 13.5343C11.8641 13.8903 10.8903 14.8641 10.5343 16.1099L9.72114 18.956C9.62915 19.278 9.33486 19.5 9 19.5C8.66514 19.5 8.37085 19.278 8.27886 18.956L7.46566 16.1099C7.10972 14.8641 6.13593 13.8903 4.89015 13.5343L2.04396 12.7211C1.72198 12.6291 1.5 12.3349 1.5 12C1.5 11.6651 1.72198 11.3709 2.04396 11.2789L4.89015 10.4657C6.13593 10.1097 7.10972 9.13593 7.46566 7.89015L8.27886 5.04396C8.37085 4.72198 8.66514 4.5 9 4.5Z" fill="white"/>
</svg>
