<svg width="24" height="24" viewBox="0 0 24 24" fill="none" xmlns="http://www.w3.org/2000/svg">
<path fill-rule="evenodd" clip-rule="evenodd" d="M2.25 12.0046C2.25 6.61986 6.61522 2.25464 12 2.25464C17.3848 2.25464 21.75 6.61986 21.75 12.0046C21.75 17.3894 17.3848 21.7546 12 21.7546C6.61522 21.7546 2.25 17.3894 2.25 12.0046ZM15.6103 10.1906C15.8511 9.85351 15.773 9.3851 15.4359 9.14434C15.0989 8.90358 14.6305 8.98165 14.3897 9.31871L11.1543 13.8483L9.53033 12.2243C9.23744 11.9314 8.76256 11.9314 8.46967 12.2243C8.17678 12.5172 8.17678 12.9921 8.46967 13.285L10.7197 15.535C10.8756 15.6909 11.0921 15.7703 11.3119 15.7521C11.5316 15.7339 11.7322 15.62 11.8603 15.4406L15.6103 10.1906Z" fill="white"/>
</svg>
