<svg width="24" height="24" viewBox="0 0 24 24" fill="none" xmlns="http://www.w3.org/2000/svg">
<path d="M6.63257 10.257C7.43892 10.257 8.16648 9.81112 8.6641 9.17663C9.43726 8.1908 10.4117 7.37035 11.5255 6.77717C12.2477 6.39259 12.8743 5.82124 13.1781 5.06159C13.3908 4.53005 13.5 3.96282 13.5 3.39034V2.75696C13.5 2.34274 13.8358 2.00696 14.25 2.00696C15.4926 2.00696 16.5 3.01432 16.5 4.25696C16.5 5.40859 16.2404 6.49959 15.7766 7.47466C15.511 8.033 15.8836 8.75696 16.5019 8.75696M16.5019 8.75696H19.6277C20.6544 8.75696 21.5733 9.45095 21.682 10.4718C21.7269 10.894 21.75 11.3228 21.75 11.757C21.75 14.6046 20.7581 17.2205 19.101 19.2782C18.7134 19.7595 18.1142 20.007 17.4962 20.007H13.4802C12.9966 20.007 12.5161 19.929 12.0572 19.776L8.94278 18.7379C8.48393 18.5849 8.00342 18.507 7.51975 18.507H5.90421M16.5019 8.75696H14.25M5.90421 18.507C5.98702 18.7115 6.07713 18.9124 6.17423 19.1092C6.37137 19.5087 6.0962 20.007 5.65067 20.007H4.74289C3.85418 20.007 3.02991 19.4889 2.77056 18.6389C2.43208 17.5296 2.25 16.352 2.25 15.132C2.25 13.5795 2.54481 12.0959 3.08149 10.7341C3.38655 9.95999 4.16733 9.50696 4.99936 9.50696H6.05212C6.52404 9.50696 6.7973 10.0629 6.5523 10.4662C5.72588 11.8267 5.25 13.4238 5.25 15.132C5.25 16.3255 5.48232 17.4647 5.90421 18.507Z" stroke="white" stroke-width="1.5" stroke-linecap="round" stroke-linejoin="round"/>
</svg>
