<svg width="24" height="25" viewBox="0 0 24 25" fill="none" xmlns="http://www.w3.org/2000/svg">
<path d="M2.25 18.7686C7.71719 18.7686 13.0136 19.4998 18.0468 20.8698C18.7738 21.0677 19.5 20.5271 19.5 19.7737V18.7686M3.75 4.51855V5.26855C3.75 5.68277 3.41421 6.01855 3 6.01855H2.25M2.25 6.01855V5.64355C2.25 5.02223 2.75368 4.51855 3.375 4.51855H20.25M2.25 6.01855V15.0186M20.25 4.51855V5.26855C20.25 5.68277 20.5858 6.01855 21 6.01855H21.75M20.25 4.51855H20.625C21.2463 4.51855 21.75 5.02223 21.75 5.64355V15.3936C21.75 16.0149 21.2463 16.5186 20.625 16.5186H20.25M21.75 15.0186H21C20.5858 15.0186 20.25 15.3543 20.25 15.7686V16.5186M20.25 16.5186H3.75M3.75 16.5186H3.375C2.75368 16.5186 2.25 16.0149 2.25 15.3936V15.0186M3.75 16.5186V15.7686C3.75 15.3543 3.41421 15.0186 3 15.0186H2.25M15 10.5186C15 12.1754 13.6569 13.5186 12 13.5186C10.3431 13.5186 9 12.1754 9 10.5186C9 8.8617 10.3431 7.51855 12 7.51855C13.6569 7.51855 15 8.8617 15 10.5186ZM18 10.5186H18.0075V10.5261H18V10.5186ZM6 10.5186H6.0075V10.5261H6V10.5186Z" stroke="white" stroke-width="1.5" stroke-linecap="round" stroke-linejoin="round"/>
</svg>
