<svg width="24" height="24" viewBox="0 0 24 24" fill="none" xmlns="http://www.w3.org/2000/svg">
<path d="M6.11507 5.19507L6.4339 7.10801C6.63948 8.34153 7.22535 9.47999 8.10962 10.3643L9.75 12.0046L9.36262 12.7794C9.14607 13.2125 9.23096 13.7356 9.57336 14.078L10.9205 15.4251C11.1315 15.6361 11.25 15.9223 11.25 16.2206V17.3094C11.25 17.7355 11.4908 18.125 11.8719 18.3156L12.0247 18.392C12.4579 18.6086 12.981 18.5237 13.3234 18.1813L14.0461 17.4586C15.161 16.3436 15.952 14.9466 16.3344 13.4168C16.4357 13.0119 16.2962 12.5848 15.9756 12.3177L14.6463 11.2099C14.3947 11.0002 14.0642 10.9106 13.7411 10.9644L12.5711 11.1595C12.2127 11.2192 11.8475 11.1022 11.5906 10.8453L11.2955 10.5501C10.8562 10.1108 10.8562 9.39848 11.2955 8.95914L11.4266 8.828C11.769 8.48559 12.2921 8.40071 12.7253 8.61726L13.3292 8.91923C13.4415 8.9754 13.5654 9.00464 13.691 9.00464C14.2924 9.00464 14.6835 8.37173 14.4146 7.83382L14.25 7.50464L15.5057 6.66753C16.1573 6.23313 16.6842 5.63621 17.0344 4.93576L17.1803 4.64406M6.11507 5.19507C4.20716 6.84537 3 9.28403 3 12.0046C3 16.9752 7.02944 21.0046 12 21.0046C16.9706 21.0046 21 16.9752 21 12.0046C21 8.96265 19.4908 6.27315 17.1803 4.64406M6.11507 5.19507C7.69292 3.83026 9.75004 3.00464 12 3.00464C13.9286 3.00464 15.7155 3.61124 17.1803 4.64406" stroke="white" stroke-width="1.5" stroke-linecap="round" stroke-linejoin="round"/>
</svg>
